<svg width="24" height="24" viewBox="0 0 24 24" fill="none" xmlns="http://www.w3.org/2000/svg">
<path d="M5.09202 19.782L5.43251 19.1138H5.43251L5.09202 19.782ZM4.21799 18.908L4.88624 18.5675H4.88624L4.21799 18.908ZM18.908 19.782L18.5675 19.1138H18.5675L18.908 19.782ZM19.782 18.908L19.1138 18.5675V18.5675L19.782 18.908ZM18.908 6.21801L18.5675 6.88627H18.5675L18.908 6.21801ZM19.782 7.09205L19.1138 7.43254V7.43254L19.782 7.09205ZM5.09202 6.21801L4.75153 5.54976H4.75153L5.09202 6.21801ZM4.21799 7.09205L3.54973 6.75155H3.54973L4.21799 7.09205ZM15.546 14.891L15.8865 14.2228L15.546 14.891ZM15.109 14.454L15.7772 14.1135L15.109 14.454ZM21.891 14.454L21.2228 14.1135L21.891 14.454ZM21.454 14.891L21.1135 14.2228L21.454 14.891ZM21.454 11.109L21.1135 11.7773L21.454 11.109ZM21.891 11.546L21.2228 11.8865L21.891 11.546ZM15.546 11.109L15.8865 11.7773L15.546 11.109ZM15.109 11.546L15.7772 11.8865L15.109 11.546ZM5.72146 5.30367C5.33687 5.4575 5.14981 5.89398 5.30364 6.27857C5.45748 6.66316 5.89396 6.85022 6.27854 6.69638L5.72146 5.30367ZM14.6286 2.54858L14.3501 1.85223L14.3501 1.85223L14.6286 2.54858ZM15.25 6.00003C15.25 6.41424 15.5858 6.75003 16 6.75003C16.4142 6.75003 16.75 6.41424 16.75 6.00003H15.25ZM7.2 6.75003H16.8V5.25003H7.2V6.75003ZM16.8 19.25H7.2V20.75H16.8V19.25ZM4.75 16.8V9.20003H3.25V16.8H4.75ZM19.25 9.20003V11.25H20.75V9.20003H19.25ZM19.25 15.1875V16.8H20.75V15.1875H19.25ZM7.2 19.25C6.62757 19.25 6.24336 19.2494 5.94748 19.2253C5.66035 19.2018 5.52307 19.1599 5.43251 19.1138L4.75153 20.4503C5.08879 20.6221 5.44545 20.6892 5.82533 20.7203C6.19646 20.7506 6.65232 20.75 7.2 20.75V19.25ZM3.25 16.8C3.25 17.3477 3.24942 17.8036 3.27974 18.1747C3.31078 18.5546 3.37789 18.9112 3.54973 19.2485L4.88624 18.5675C4.8401 18.477 4.79822 18.3397 4.77476 18.0526C4.75058 17.7567 4.75 17.3725 4.75 16.8H3.25ZM5.43251 19.1138C5.19731 18.9939 5.00608 18.8027 4.88624 18.5675L3.54973 19.2485C3.81338 19.7659 4.23408 20.1866 4.75153 20.4503L5.43251 19.1138ZM16.8 20.75C17.3477 20.75 17.8035 20.7506 18.1747 20.7203C18.5546 20.6892 18.9112 20.6221 19.2485 20.4503L18.5675 19.1138C18.4769 19.1599 18.3396 19.2018 18.0525 19.2253C17.7566 19.2494 17.3724 19.25 16.8 19.25V20.75ZM19.25 16.8C19.25 17.3725 19.2494 17.7567 19.2252 18.0526C19.2018 18.3397 19.1599 18.477 19.1138 18.5675L20.4503 19.2485C20.6221 18.9112 20.6892 18.5546 20.7203 18.1747C20.7506 17.8036 20.75 17.3477 20.75 16.8H19.25ZM19.2485 20.4503C19.7659 20.1866 20.1866 19.7659 20.4503 19.2485L19.1138 18.5675C18.9939 18.8027 18.8027 18.9939 18.5675 19.1138L19.2485 20.4503ZM16.8 6.75003C17.3724 6.75003 17.7566 6.75061 18.0525 6.77479C18.3396 6.79824 18.4769 6.84013 18.5675 6.88627L19.2485 5.54976C18.9112 5.37792 18.5546 5.3108 18.1747 5.27977C17.8035 5.24944 17.3477 5.25003 16.8 5.25003V6.75003ZM20.75 9.20003C20.75 8.65235 20.7506 8.19649 20.7203 7.82536C20.6892 7.44547 20.6221 7.08882 20.4503 6.75155L19.1138 7.43254C19.1599 7.5231 19.2018 7.66038 19.2252 7.94751C19.2494 8.24338 19.25 8.6276 19.25 9.20003H20.75ZM18.5675 6.88627C18.8027 7.00611 18.9939 7.19734 19.1138 7.43254L20.4503 6.75155C20.1866 6.23411 19.7659 5.81341 19.2485 5.54976L18.5675 6.88627ZM7.2 5.25003C6.65232 5.25003 6.19646 5.24944 5.82533 5.27977C5.44545 5.3108 5.08879 5.37792 4.75153 5.54976L5.43251 6.88627C5.52307 6.84013 5.66035 6.79824 5.94748 6.77479C6.24336 6.75061 6.62757 6.75003 7.2 6.75003V5.25003ZM4.75 9.20003C4.75 8.6276 4.75058 8.24338 4.77476 7.9475C4.79822 7.66038 4.8401 7.5231 4.88624 7.43254L3.54973 6.75155C3.37789 7.08882 3.31078 7.44547 3.27974 7.82536C3.24942 8.19649 3.25 8.65235 3.25 9.20003H4.75ZM4.75153 5.54976C4.23408 5.81341 3.81338 6.23411 3.54973 6.75155L4.88624 7.43254C5.00608 7.19734 5.19731 7.00611 5.43251 6.88627L4.75153 5.54976ZM16.6 11.75H20.4V10.25H16.6V11.75ZM21.25 12.6V13.4H22.75V12.6H21.25ZM20.4 14.25H16.6V15.75H20.4V14.25ZM15.75 13.4V12.6H14.25V13.4H15.75ZM16.6 14.25C16.3076 14.25 16.1334 14.2494 16.0043 14.2389C15.8839 14.2291 15.8701 14.2144 15.8865 14.2228L15.2055 15.5593C15.4358 15.6766 15.669 15.7165 15.8821 15.7339C16.0865 15.7506 16.3323 15.75 16.6 15.75V14.25ZM14.25 13.4C14.25 13.6677 14.2494 13.9135 14.2661 14.1179C14.2835 14.331 14.3234 14.5642 14.4407 14.7945L15.7772 14.1135C15.7856 14.1299 15.771 14.1161 15.7611 13.9958C15.7506 13.8666 15.75 13.6924 15.75 13.4H14.25ZM15.8865 14.2228C15.8395 14.1988 15.8012 14.1606 15.7772 14.1135L14.4407 14.7945C14.6085 15.1238 14.8762 15.3915 15.2055 15.5593L15.8865 14.2228ZM21.25 13.4C21.25 13.6924 21.2494 13.8666 21.2389 13.9958C21.229 14.1161 21.2144 14.1299 21.2228 14.1135L22.5593 14.7945C22.6766 14.5642 22.7165 14.331 22.7339 14.1179C22.7506 13.9135 22.75 13.6677 22.75 13.4H21.25ZM20.4 15.75C20.6677 15.75 20.9135 15.7506 21.1179 15.7339C21.331 15.7165 21.5642 15.6766 21.7945 15.5593L21.1135 14.2228C21.1299 14.2144 21.1161 14.2291 20.9957 14.2389C20.8666 14.2494 20.6924 14.25 20.4 14.25V15.75ZM21.2228 14.1135C21.1988 14.1606 21.1605 14.1988 21.1135 14.2228L21.7945 15.5593C22.1238 15.3915 22.3915 15.1238 22.5593 14.7945L21.2228 14.1135ZM20.4 11.75C20.6924 11.75 20.8666 11.7506 20.9957 11.7612C21.1161 11.771 21.1299 11.7856 21.1135 11.7773L21.7945 10.4408C21.5642 10.3234 21.331 10.2836 21.1179 10.2661C20.9135 10.2494 20.6677 10.25 20.4 10.25V11.75ZM22.75 12.6C22.75 12.3324 22.7506 12.0865 22.7339 11.8822C22.7165 11.669 22.6766 11.4359 22.5593 11.2055L21.2228 11.8865C21.2144 11.8701 21.229 11.8839 21.2389 12.0043C21.2494 12.1334 21.25 12.3076 21.25 12.6H22.75ZM21.1135 11.7773C21.1605 11.8012 21.1988 11.8395 21.2228 11.8865L22.5593 11.2055C22.3915 10.8763 22.1238 10.6085 21.7945 10.4408L21.1135 11.7773ZM16.6 10.25C16.3323 10.25 16.0865 10.2494 15.8821 10.2661C15.669 10.2836 15.4358 10.3234 15.2055 10.4408L15.8865 11.7773C15.8701 11.7856 15.8839 11.771 16.0043 11.7612C16.1334 11.7506 16.3076 11.75 16.6 11.75V10.25ZM15.75 12.6C15.75 12.3076 15.7506 12.1334 15.7611 12.0043C15.771 11.8839 15.7856 11.8701 15.7772 11.8865L14.4407 11.2055C14.3234 11.4359 14.2835 11.669 14.2661 11.8822C14.2494 12.0865 14.25 12.3324 14.25 12.6H15.75ZM15.2055 10.4408C14.8762 10.6085 14.6085 10.8763 14.4407 11.2055L15.7772 11.8865C15.8012 11.8395 15.8395 11.8012 15.8865 11.7773L15.2055 10.4408ZM6.27854 6.69638L14.9072 3.24494L14.3501 1.85223L5.72146 5.30367L6.27854 6.69638ZM15.25 3.47706V6.00003H16.75V3.47706H15.25ZM14.9072 3.24494C15.0714 3.17925 15.25 3.30019 15.25 3.47706H16.75C16.75 2.239 15.4996 1.39242 14.3501 1.85223L14.9072 3.24494Z" fill="black" fill-opacity="0.6"/>
</svg>
