<svg width="40" height="40" viewBox="0 0 40 40" fill="none" xmlns="http://www.w3.org/2000/svg">
<path d="M15.9099 24.8185L16.2504 24.1503L15.9099 24.8185ZM15.1816 24.0901L15.8498 23.7497L15.1816 24.0901ZM24.8183 24.0901L24.15 23.7497L24.8183 24.0901ZM24.0899 24.8185L23.7494 24.1503L24.0899 24.8185ZM24.0899 15.1818L23.7494 15.8501L24.0899 15.1818ZM24.8183 15.9102L24.15 16.2507L24.8183 15.9102ZM15.9099 15.1818L16.2504 15.8501L15.9099 15.1818ZM15.1816 15.9102L15.8498 16.2507L15.1816 15.9102ZM2.58325 11.6668C2.58325 12.081 2.91904 12.4168 3.33325 12.4168C3.74747 12.4168 4.08325 12.081 4.08325 11.6668H2.58325ZM11.6666 4.0835C12.0808 4.0835 12.4166 3.74771 12.4166 3.3335C12.4166 2.91928 12.0808 2.5835 11.6666 2.5835V4.0835ZM3.51491 4.24351L2.84665 3.90302L2.84665 3.90302L3.51491 4.24351ZM4.24327 3.51515L3.90277 2.8469L3.90277 2.8469L4.24327 3.51515ZM5.53025 4.46983C5.23736 4.17694 4.76248 4.17694 4.46959 4.46983C4.1767 4.76273 4.1767 5.2376 4.46959 5.53049L5.53025 4.46983ZM11.1363 12.1972C11.4291 12.4901 11.904 12.4901 12.1969 12.1972C12.4898 11.9043 12.4898 11.4294 12.1969 11.1365L11.1363 12.1972ZM4.08325 28.3335C4.08325 27.9193 3.74747 27.5835 3.33325 27.5835C2.91904 27.5835 2.58325 27.9193 2.58325 28.3335H4.08325ZM11.6666 37.4168C12.0808 37.4168 12.4166 37.081 12.4166 36.6668C12.4166 36.2526 12.0808 35.9168 11.6666 35.9168V37.4168ZM3.51491 35.7568L2.84665 36.0973H2.84665L3.51491 35.7568ZM4.24327 36.4852L3.90277 37.1534H3.90277L4.24327 36.4852ZM4.46959 34.4698C4.1767 34.7627 4.1767 35.2376 4.46959 35.5305C4.76248 35.8234 5.23736 35.8234 5.53025 35.5305L4.46959 34.4698ZM12.1969 28.8638C12.4898 28.5709 12.4898 28.0961 12.1969 27.8032C11.904 27.5103 11.4291 27.5103 11.1363 27.8032L12.1969 28.8638ZM35.9166 11.6668C35.9166 12.081 36.2524 12.4168 36.6666 12.4168C37.0808 12.4168 37.4166 12.081 37.4166 11.6668H35.9166ZM28.3333 2.5835C27.919 2.5835 27.5833 2.91928 27.5833 3.3335C27.5833 3.74771 27.919 4.0835 28.3333 4.0835V2.5835ZM36.4849 4.24351L37.1532 3.90302V3.90302L36.4849 4.24351ZM35.7566 3.51515L36.0971 2.8469V2.8469L35.7566 3.51515ZM35.5303 5.53049C35.8231 5.2376 35.8231 4.76273 35.5303 4.46983C35.2374 4.17694 34.7625 4.17694 34.4696 4.46983L35.5303 5.53049ZM27.8029 11.1365C27.51 11.4294 27.51 11.9043 27.8029 12.1972C28.0958 12.4901 28.5707 12.4901 28.8636 12.1972L27.8029 11.1365ZM37.4166 28.3335C37.4166 27.9193 37.0808 27.5835 36.6666 27.5835C36.2524 27.5835 35.9166 27.9193 35.9166 28.3335H37.4166ZM28.3333 35.9168C27.919 35.9168 27.5833 36.2526 27.5833 36.6668C27.5833 37.081 27.919 37.4168 28.3333 37.4168V35.9168ZM36.4849 35.7568L37.1532 36.0973L36.4849 35.7568ZM35.7566 36.4852L36.0971 37.1534L35.7566 36.4852ZM34.4696 35.5305C34.7625 35.8234 35.2374 35.8234 35.5303 35.5305C35.8231 35.2376 35.8231 34.7627 35.5303 34.4698L34.4696 35.5305ZM28.8636 27.8032C28.5707 27.5103 28.0958 27.5103 27.8029 27.8032C27.51 28.0961 27.51 28.5709 27.8029 28.8638L28.8636 27.8032ZM17.6666 15.7502H22.3333V14.2502H17.6666V15.7502ZM24.2499 17.6668V22.3335H25.7499V17.6668H24.2499ZM22.3333 24.2502H17.6666V25.7502H22.3333V24.2502ZM15.7499 22.3335V17.6668H14.2499V22.3335H15.7499ZM17.6666 24.2502C17.1875 24.2502 16.8733 24.2496 16.633 24.2299C16.4015 24.211 16.3053 24.1782 16.2504 24.1503L15.5694 25.4868C15.8711 25.6404 16.1865 25.6985 16.5108 25.725C16.8264 25.7507 17.2123 25.7502 17.6666 25.7502V24.2502ZM14.2499 22.3335C14.2499 22.7878 14.2493 23.1737 14.2751 23.4892C14.3016 23.8135 14.3596 24.129 14.5133 24.4306L15.8498 23.7497C15.8219 23.6947 15.7891 23.5986 15.7701 23.3671C15.7505 23.1268 15.7499 22.8126 15.7499 22.3335H14.2499ZM16.2504 24.1503C16.0779 24.0624 15.9377 23.9221 15.8498 23.7497L14.5133 24.4306C14.745 24.8854 15.1147 25.2551 15.5694 25.4868L16.2504 24.1503ZM24.2499 22.3335C24.2499 22.8126 24.2493 23.1268 24.2297 23.3671C24.2108 23.5986 24.178 23.6947 24.15 23.7497L25.4865 24.4306C25.6402 24.129 25.6982 23.8135 25.7247 23.4892C25.7505 23.1737 25.7499 22.7878 25.7499 22.3335H24.2499ZM22.3333 25.7502C22.7876 25.7502 23.1734 25.7507 23.489 25.725C23.8133 25.6985 24.1288 25.6404 24.4304 25.4868L23.7494 24.1503C23.6945 24.1782 23.5984 24.211 23.3668 24.2299C23.1265 24.2496 22.8123 24.2502 22.3333 24.2502V25.7502ZM24.15 23.7497C24.0621 23.9221 23.9219 24.0624 23.7494 24.1503L24.4304 25.4868C24.8851 25.2551 25.2548 24.8854 25.4865 24.4306L24.15 23.7497ZM22.3333 15.7502C22.8123 15.7502 23.1265 15.7507 23.3668 15.7704C23.5984 15.7893 23.6945 15.8221 23.7494 15.8501L24.4304 14.5136C24.1288 14.3599 23.8133 14.3019 23.489 14.2754C23.1734 14.2496 22.7876 14.2502 22.3333 14.2502V15.7502ZM25.7499 17.6668C25.7499 17.2125 25.7505 16.8266 25.7247 16.5111C25.6982 16.1868 25.6402 15.8713 25.4865 15.5697L24.15 16.2507C24.178 16.3056 24.2108 16.4017 24.2297 16.6332C24.2493 16.8735 24.2499 17.1877 24.2499 17.6668H25.7499ZM23.7494 15.8501C23.9219 15.938 24.0621 16.0782 24.15 16.2507L25.4865 15.5697C25.2548 15.115 24.8851 14.7453 24.4304 14.5136L23.7494 15.8501ZM17.6666 14.2502C17.2123 14.2502 16.8264 14.2496 16.5108 14.2754C16.1865 14.3019 15.8711 14.3599 15.5694 14.5136L16.2504 15.8501C16.3053 15.8221 16.4015 15.7893 16.633 15.7704C16.8733 15.7507 17.1875 15.7502 17.6666 15.7502V14.2502ZM15.7499 17.6668C15.7499 17.1877 15.7505 16.8735 15.7701 16.6332C15.7891 16.4017 15.8219 16.3056 15.8498 16.2507L14.5133 15.5697C14.3596 15.8713 14.3016 16.1868 14.2751 16.5111C14.2493 16.8266 14.2499 17.2125 14.2499 17.6668H15.7499ZM15.5694 14.5136C15.1147 14.7453 14.745 15.115 14.5133 15.5697L15.8498 16.2507C15.9377 16.0782 16.0779 15.938 16.2504 15.8501L15.5694 14.5136ZM4.08325 11.6668V6.00016H2.58325V11.6668H4.08325ZM5.99992 4.0835H11.6666V2.5835H5.99992V4.0835ZM4.08325 6.00016C4.08325 5.52108 4.08384 5.20687 4.10347 4.96657C4.12239 4.73503 4.15519 4.63891 4.18316 4.584L2.84665 3.90302C2.69297 4.20463 2.63495 4.52012 2.60845 4.84443C2.58267 5.15997 2.58325 5.54583 2.58325 6.00016H4.08325ZM5.99992 2.5835C5.54558 2.5835 5.15973 2.58291 4.84418 2.60869C4.51988 2.63519 4.20439 2.69322 3.90277 2.8469L4.58376 4.18341C4.63867 4.15543 4.73479 4.12263 4.96633 4.10371C5.20662 4.08408 5.52083 4.0835 5.99992 4.0835V2.5835ZM4.18316 4.584C4.27105 4.41152 4.41128 4.27129 4.58376 4.18341L3.90277 2.8469C3.44805 3.07859 3.07835 3.44829 2.84665 3.90302L4.18316 4.584ZM4.46959 5.53049L11.1363 12.1972L12.1969 11.1365L5.53025 4.46983L4.46959 5.53049ZM2.58325 28.3335V34.0002H4.08325V28.3335H2.58325ZM5.99992 37.4168H11.6666V35.9168H5.99992V37.4168ZM2.58325 34.0002C2.58325 34.4545 2.58267 34.8404 2.60845 35.1559C2.63495 35.4802 2.69297 35.7957 2.84665 36.0973L4.18316 35.4163C4.15519 35.3614 4.12239 35.2653 4.10347 35.0338C4.08384 34.7935 4.08325 34.4792 4.08325 34.0002H2.58325ZM5.99992 35.9168C5.52083 35.9168 5.20662 35.9162 4.96633 35.8966C4.73479 35.8777 4.63867 35.8449 4.58376 35.8169L3.90277 37.1534C4.20439 37.3071 4.51988 37.3651 4.84418 37.3916C5.15973 37.4174 5.54558 37.4168 5.99992 37.4168V35.9168ZM2.84665 36.0973C3.07835 36.552 3.44805 36.9217 3.90277 37.1534L4.58376 35.8169C4.41128 35.729 4.27105 35.5888 4.18316 35.4163L2.84665 36.0973ZM5.53025 35.5305L12.1969 28.8638L11.1363 27.8032L4.46959 34.4698L5.53025 35.5305ZM37.4166 11.6668V6.00016H35.9166V11.6668H37.4166ZM33.9999 2.5835H28.3333V4.0835H33.9999V2.5835ZM37.4166 6.00016C37.4166 5.54583 37.4172 5.15997 37.3914 4.84443C37.3649 4.52012 37.3069 4.20463 37.1532 3.90302L35.8167 4.584C35.8447 4.63891 35.8775 4.73503 35.8964 4.96657C35.916 5.20687 35.9166 5.52108 35.9166 6.00016H37.4166ZM33.9999 4.0835C34.479 4.0835 34.7932 4.08408 35.0335 4.10371C35.265 4.12263 35.3612 4.15543 35.4161 4.18341L36.0971 2.8469C35.7955 2.69322 35.48 2.63519 35.1557 2.60869C34.8401 2.58291 34.4543 2.5835 33.9999 2.5835V4.0835ZM37.1532 3.90302C36.9215 3.44829 36.5518 3.07859 36.0971 2.8469L35.4161 4.18341C35.5886 4.27129 35.7288 4.41152 35.8167 4.584L37.1532 3.90302ZM34.4696 4.46983L27.8029 11.1365L28.8636 12.1972L35.5303 5.53049L34.4696 4.46983ZM35.9166 28.3335V34.0002H37.4166V28.3335H35.9166ZM33.9999 35.9168H28.3333V37.4168H33.9999V35.9168ZM35.9166 34.0002C35.9166 34.4792 35.916 34.7935 35.8964 35.0338C35.8775 35.2653 35.8447 35.3614 35.8167 35.4163L37.1532 36.0973C37.3069 35.7957 37.3649 35.4802 37.3914 35.1559C37.4172 34.8404 37.4166 34.4545 37.4166 34.0002H35.9166ZM33.9999 37.4168C34.4543 37.4168 34.8401 37.4174 35.1557 37.3916C35.48 37.3651 35.7955 37.3071 36.0971 37.1534L35.4161 35.8169C35.3612 35.8449 35.265 35.8777 35.0335 35.8966C34.7932 35.9162 34.479 35.9168 33.9999 35.9168V37.4168ZM35.8167 35.4163C35.7288 35.5888 35.5886 35.729 35.4161 35.8169L36.0971 37.1534C36.5518 36.9217 36.9215 36.552 37.1532 36.0973L35.8167 35.4163ZM35.5303 34.4698L28.8636 27.8032L27.8029 28.8638L34.4696 35.5305L35.5303 34.4698Z" fill="black" fill-opacity="0.6"/>
</svg>
