<svg width="40" height="40" viewBox="0 0 40 40" fill="none" xmlns="http://www.w3.org/2000/svg">
<path d="M5 35H6.66667M35 35H33.3333M6.66667 35V9.3009C6.66667 7.84322 6.66667 7.11439 6.97075 6.62793C7.23707 6.2019 7.65398 5.89171 8.13857 5.75904C8.69188 5.60756 9.38998 5.81699 10.7862 6.23585L21.0528 9.31585C21.8711 9.56133 22.2802 9.68407 22.5835 9.92697C22.8513 10.1414 23.0594 10.4211 23.1878 10.7392C23.3333 11.0995 23.3333 11.5266 23.3333 12.3809V16.6667M6.66667 35H15M23.3333 35V16.6667M23.3333 35H33.3333M23.3333 35H15M23.3333 16.6667L31.2274 14.0353C31.9384 13.7983 32.2939 13.6798 32.5769 13.7509C32.8246 13.8131 33.0391 13.9677 33.1764 14.183C33.3333 14.429 33.3333 14.8037 33.3333 15.5532V35M15 15V15.0167M15 19.9833V20M28.3333 21.65V21.6667M28.3333 26.6667V26.6833M15 35V26.6667" stroke="black" stroke-opacity="0.6" stroke-width="1.5" stroke-linecap="round"/>
</svg>
