<svg width="40" height="40" viewBox="0 0 40 40" fill="none" xmlns="http://www.w3.org/2000/svg">
<path d="M3.33325 26.6665L7.64077 15.7019C8.09836 14.5371 8.33325 13.2968 8.33325 12.0454V9.99984C8.33325 8.15889 9.82564 6.6665 11.6666 6.6665H28.3333C30.1742 6.6665 31.6666 8.15889 31.6666 9.99984V12.0454C31.6666 13.2968 31.9015 14.5371 32.3591 15.7019L36.6666 26.6665M8.33325 13.3332H13.3333M26.6666 13.3332H31.6666M6.66659 31.6665H33.3333C35.1742 31.6665 36.6666 30.1741 36.6666 28.3332C36.6666 26.4922 35.1742 24.9998 33.3333 24.9998H6.66659C4.82564 24.9998 3.33325 26.4922 3.33325 28.3332C3.33325 30.1741 4.82564 31.6665 6.66659 31.6665ZM16.6666 18.3332H23.3333C25.1742 18.3332 26.6666 16.8408 26.6666 14.9998C26.6666 13.1589 25.1742 11.6665 23.3333 11.6665H16.6666C14.8256 11.6665 13.3333 13.1589 13.3333 14.9998C13.3333 16.8408 14.8256 18.3332 16.6666 18.3332Z" stroke="black" stroke-opacity="0.6" stroke-width="1.5" stroke-linecap="round"/>
</svg>
