<svg width="70" height="70" viewBox="0 0 70 70" fill="none" xmlns="http://www.w3.org/2000/svg">
<rect x="1" y="1" width="68" height="68" rx="34" stroke="#0D0D0D" stroke-width="2"/>
<path d="M26 28L33.7721 34.045C34.4943 34.6067 35.5057 34.6067 36.2279 34.045L44 28M28.2 43H41.8C42.9201 43 43.4802 43 43.908 42.782C44.2843 42.5903 44.5903 42.2843 44.782 41.908C45 41.4802 45 40.9201 45 39.8V30.2C45 29.0799 45 28.5198 44.782 28.092C44.5903 27.7157 44.2843 27.4097 43.908 27.218C43.4802 27 42.9201 27 41.8 27H28.2C27.0799 27 26.5198 27 26.092 27.218C25.7157 27.4097 25.4097 27.7157 25.218 28.092C25 28.5198 25 29.0799 25 30.2V39.8C25 40.9201 25 41.4802 25.218 41.908C25.4097 42.2843 25.7157 42.5903 26.092 42.782C26.5198 43 27.0799 43 28.2 43Z" stroke="#0D0D0D" stroke-width="1.5"/>
</svg>
