<svg width="54" height="54" viewBox="0 0 54 54" fill="none" xmlns="http://www.w3.org/2000/svg">
<rect x="0.5" y="0.5" width="53" height="53" rx="26.5" stroke="#0D0D0D"/>
<path d="M18 20L25.7721 26.045C26.4943 26.6067 27.5057 26.6067 28.2279 26.045L36 20M20.2 35H33.8C34.9201 35 35.4802 35 35.908 34.782C36.2843 34.5903 36.5903 34.2843 36.782 33.908C37 33.4802 37 32.9201 37 31.8V22.2C37 21.0799 37 20.5198 36.782 20.092C36.5903 19.7157 36.2843 19.4097 35.908 19.218C35.4802 19 34.9201 19 33.8 19H20.2C19.0799 19 18.5198 19 18.092 19.218C17.7157 19.4097 17.4097 19.7157 17.218 20.092C17 20.5198 17 21.0799 17 22.2V31.8C17 32.9201 17 33.4802 17.218 33.908C17.4097 34.2843 17.7157 34.5903 18.092 34.782C18.5198 35 19.0799 35 20.2 35Z" stroke="#0D0D0D" stroke-width="1.5"/>
</svg>
