<svg width="7" height="13" viewBox="0 0 7 13" fill="none" xmlns="http://www.w3.org/2000/svg">
<path d="M4.98692 1.88553C4.38474 1.88553 3.88336 2.31792 3.77596 2.88889L3.75414 2.91058V3.11852V4.81034V5.31034H4.25414H5.76846L5.58253 6.58932H4.25414H3.75414V7.08932V11.8916C3.56248 11.9068 3.36867 11.9146 3.1732 11.9146C2.922 11.9146 2.67388 11.9019 2.4296 11.8771V7.08932V6.58932H1.9296H0.5V5.31034H1.9296H2.4296V4.81034V2.74033C2.4296 1.75333 3.21247 0.949188 4.19104 0.91564H4.25469C4.26709 0.91564 4.27841 0.915194 4.28836 0.914551H5.84694V1.88553H4.98692Z" fill="#6B3BAB" stroke="#6B3BAB"/>
</svg>
