<svg width="24" height="25" viewBox="0 0 24 25" fill="none" xmlns="http://www.w3.org/2000/svg">
<path d="M12 0.664551C18.422 0.664551 23.6411 5.81865 23.7483 12.2172V12.4181C23.7483 18.3539 19.3496 23.2615 13.6355 24.0579C13.1011 24.1321 12.5542 24.1708 11.9992 24.1708C11.3583 24.1708 10.7292 24.1197 10.1169 24.0209L10.1168 24.0209C4.52283 23.12 0.25 18.2675 0.25 12.4181C0.25 5.92689 5.5109 0.664551 12 0.664551Z" stroke="#6B3BAB" stroke-width="0.5"/>
<path d="M14.8024 8.42033C13.9771 8.42033 13.2946 9.03383 13.1858 9.82933L13.1699 9.8452V10.0532V12.6681V13.1681H13.6699H16.3257L15.959 15.6904H13.6699H13.1699V16.1904V23.8621C12.7849 23.9009 12.3942 23.921 11.9992 23.921C11.5175 23.921 11.0427 23.8915 10.5771 23.8341V16.1904V15.6904H10.0771H7.59474V13.1681H10.0771H10.5771V12.6681V9.4687C10.5771 7.79422 11.9066 6.43008 13.5677 6.37571H13.6707C13.6868 6.37571 13.7011 6.37497 13.713 6.37402H16.4044V8.42033H14.8024Z" fill="#6B3BAB" stroke="#6B3BAB"/>
</svg>
