<svg width="24" height="25" viewBox="0 0 24 25" fill="none" xmlns="http://www.w3.org/2000/svg">
<path d="M23.9983 12.379C23.9983 18.4413 19.5059 23.4532 13.6698 24.2665C13.1242 24.3422 12.5659 24.3817 11.9992 24.3817C11.345 24.3817 10.7026 24.3296 10.0771 24.2286C4.36379 23.3085 0 18.353 0 12.379C0 5.74983 5.37276 0.375488 12 0.375488C18.6272 0.375488 24 5.74983 24 12.379H23.9983Z" fill="white"/>
<path d="M14.8024 8.38126C13.9771 8.38126 13.2946 8.99477 13.1858 9.79027L13.1698 9.80614V10.0142V12.629V13.129H13.6698H16.3256L15.959 15.6513H13.6698H13.1698V16.1513V23.8231C12.7849 23.8619 12.3942 23.8819 11.9992 23.8819C11.5174 23.8819 11.0427 23.8524 10.5771 23.795V16.1513V15.6513H10.0771H7.59473V13.129H10.0771H10.5771V12.629V9.42963C10.5771 7.75515 11.9066 6.39101 13.5676 6.33664H13.6707C13.6867 6.33664 13.701 6.33591 13.713 6.33496H16.4044V8.38126H14.8024Z" fill="#6B3BAB" stroke="#6B3BAB"/>
</svg>
