<svg width="24" height="25" viewBox="0 0 24 25" fill="none" xmlns="http://www.w3.org/2000/svg">
<path d="M23.9983 12.1012C23.9983 18.1635 19.5059 23.1754 13.6698 23.9887C13.1242 24.0644 12.5659 24.1039 11.9992 24.1039C11.345 24.1039 10.7026 24.0517 10.0771 23.9508C4.36379 23.0307 0 18.0752 0 12.1012C0 5.47199 5.37276 0.0976562 12 0.0976562C18.6272 0.0976562 24 5.47199 24 12.1012H23.9983Z" fill="white"/>
<path d="M13.9869 7.56864C13.3847 7.56864 12.8834 8.00102 12.776 8.572L12.7541 8.59369V8.80163V10.4934V10.9934H13.2541H14.7685L14.5825 12.2724H13.2541H12.7541V12.7724V17.5748C12.5625 17.5899 12.3687 17.5977 12.1732 17.5977C11.922 17.5977 11.6739 17.585 11.4296 17.5602V12.7724V12.2724H10.9296H9.5V10.9934H10.9296H11.4296V10.4934V8.42343C11.4296 7.43643 12.2125 6.63229 13.191 6.59875H13.2547C13.2671 6.59875 13.2784 6.5983 13.2884 6.59766H14.8469V7.56864H13.9869Z" fill="#6B3BAB" stroke="#6B3BAB"/>
</svg>
