<svg width="24" height="25" viewBox="0 0 24 25" fill="none" xmlns="http://www.w3.org/2000/svg">
<path d="M12.0273 0.375H11.9727C5.36036 0.375 0 5.73693 0 12.3512V12.4059C0 19.0201 5.36036 24.3821 11.9727 24.3821H12.0273C18.6396 24.3821 24 19.0201 24 12.4059V12.3512C24 5.73693 18.6396 0.375 12.0273 0.375Z" fill="white"/>
<path d="M7.80935 6.52495L7.80984 6.52541C8.02024 6.72076 8.12342 6.95546 8.12342 7.26502C8.12342 7.56768 8.02436 7.78798 7.80963 7.988C7.59782 8.18456 7.32362 8.29494 6.94512 8.29494C6.56142 8.29494 6.27218 8.18147 6.06359 7.9878C5.85021 7.78968 5.75 7.55949 5.75 7.26502C5.75 6.96571 5.85455 6.7208 6.06409 6.52493C6.27366 6.33059 6.55244 6.21826 6.94512 6.21826C7.33341 6.21826 7.59772 6.32793 7.80935 6.52495ZM7.85773 10.5381V18.5377H6.01486V10.5381H7.85773Z" fill="#6B3BAB" stroke="#6B3BAB"/>
<path d="M15.3364 10.418C16.2322 10.418 16.9088 10.696 17.4156 11.2242L17.4541 11.266C17.9666 11.8225 18.251 12.6121 18.251 13.6995V18.3789H16.5511V14.0645C16.5511 13.3861 16.3737 12.788 15.9554 12.341C15.5394 11.8963 14.9852 11.6897 14.3518 11.6897C13.7191 11.6897 13.1645 11.895 12.7479 12.3412C12.3298 12.7882 12.1524 13.3862 12.1524 14.0645V18.3789H10.4365V10.513H12.1524V11.1888V12.7722L13.0617 11.476C13.284 11.1592 13.5869 10.9028 13.9838 10.7086C14.373 10.5181 14.8201 10.418 15.3364 10.418Z" fill="#6B3BAB" stroke="#6B3BAB"/>
</svg>
