<svg width="24" height="25" viewBox="0 0 24 25" fill="none" xmlns="http://www.w3.org/2000/svg">
<path d="M11.9727 0.347168H12.0273C18.5015 0.347168 23.75 5.5971 23.75 12.0734V12.128C23.75 18.6043 18.5015 23.8542 12.0273 23.8542H11.9727C5.49849 23.8542 0.25 18.6043 0.25 12.128V12.0734C0.25 5.5971 5.49849 0.347168 11.9727 0.347168Z" stroke="white" stroke-width="0.5"/>
<path d="M9.13552 6.59717H15.3938C16.8465 6.59717 18.0293 7.78014 18.0293 9.23361V14.9607C18.0293 16.4142 16.8465 17.5972 15.3938 17.5972H9.13552C7.68284 17.5972 6.5 16.4142 6.5 14.9607V9.23361C6.5 7.78014 7.68284 6.59717 9.13552 6.59717ZM9.13552 6.70361C7.74037 6.70361 6.60611 7.83841 6.60611 9.23361V14.9607C6.60611 16.3559 7.74037 17.4907 9.13552 17.4907H15.3938C16.789 17.4907 17.9232 16.3559 17.9232 14.9607V9.23361C17.9232 7.83841 16.789 6.70361 15.3938 6.70361H9.13552Z" fill="white" stroke="white"/>
<path d="M14.6808 12.0961C14.6808 13.429 13.5958 14.5136 12.2642 14.5136C10.932 14.5136 9.84766 13.4291 9.84766 12.0961C9.84766 10.7632 10.932 9.67871 12.2642 9.67871C13.5964 9.67871 14.6808 10.7632 14.6808 12.0961ZM14.5747 12.0968C14.5747 10.8221 13.5389 9.78586 12.2642 9.78586C10.9895 9.78586 9.95377 10.8221 9.95377 12.0968C9.95377 13.3715 10.9895 14.4078 12.2642 14.4078C13.5389 14.4078 14.5747 13.3715 14.5747 12.0968Z" fill="white" stroke="white"/>
<path d="M15.7377 8.86419C15.7377 9.02168 15.6088 9.15025 15.4518 9.15025C15.2945 9.15025 15.166 9.02197 15.166 8.86419C15.166 8.7064 15.2945 8.57812 15.4518 8.57812C15.6092 8.57812 15.7377 8.7064 15.7377 8.86419Z" fill="white" stroke="white"/>
</svg>
