<svg width="24" height="25" viewBox="0 0 24 25" fill="none" xmlns="http://www.w3.org/2000/svg">
<path d="M24 12.1007C24 5.47134 18.6274 0.097168 12 0.097168C5.37259 0.097168 0 5.47134 0 12.1007C0 18.7301 5.37259 24.1042 12 24.1042C18.6274 24.1042 24 18.7301 24 12.1007Z" fill="white"/>
<path d="M19.216 9.77789C19.128 8.92759 18.9385 7.98762 18.241 7.49364C17.7007 7.11057 16.9906 7.09641 16.3277 7.09719C14.9265 7.09798 13.5244 7.09956 12.1231 7.10034C10.7753 7.10192 9.42746 7.10271 8.07964 7.10428C7.51661 7.10507 6.96931 7.06102 6.44638 7.30486C5.99737 7.5141 5.64587 7.9121 5.43434 8.35495C5.14103 8.97085 5.07969 9.66856 5.04431 10.3497C4.97904 11.5902 4.98612 12.8338 5.06397 14.0735C5.12137 14.978 5.26684 15.9778 5.96592 16.5543C6.58556 17.0648 7.45999 17.09 8.26365 17.0908C10.8146 17.0932 13.3663 17.0955 15.9181 17.0971C16.2452 17.0979 16.5865 17.0916 16.9199 17.0554C17.5757 16.9846 18.2008 16.7966 18.6223 16.3105C19.0477 15.8205 19.1571 15.1385 19.2215 14.4927C19.3788 12.9258 19.3772 11.344 19.216 9.77789ZM10.6479 14.2937V9.90061L14.4507 12.0968L10.6479 14.2937Z" fill="#6B3BAB"/>
</svg>
