<svg width="24" height="25" viewBox="0 0 24 25" fill="none" xmlns="http://www.w3.org/2000/svg">
<path d="M11.9727 0.625H12.0273C18.5015 0.625 23.75 5.87493 23.75 12.3512V12.4059C23.75 18.8821 18.5015 24.1321 12.0273 24.1321H11.9727C5.49849 24.1321 0.25 18.8821 0.25 12.4059V12.3512C0.25 5.87493 5.49849 0.625 11.9727 0.625Z" stroke="white" stroke-width="0.5"/>
<path d="M8.28711 5.75928H15.7134C17.4887 5.75928 18.9341 7.20483 18.9341 8.98108V15.777C18.9341 17.5533 17.4887 18.9988 15.7134 18.9988H8.28711C6.51175 18.9988 5.06641 17.5533 5.06641 15.777V8.98108C5.06641 7.20483 6.51175 5.75928 8.28711 5.75928ZM8.28711 6.07221C6.68315 6.07221 5.37895 7.377 5.37895 8.98108V15.777C5.37895 17.3811 6.68315 18.6859 8.28711 18.6859H15.7134C17.3173 18.6859 18.6215 17.3811 18.6215 15.777V8.98108C18.6215 7.377 17.3173 6.07221 15.7134 6.07221H8.28711Z" fill="white" stroke="white"/>
<path d="M14.9618 12.3779C14.9618 14.0111 13.6326 15.3398 12.0009 15.3398C10.3685 15.3398 9.04004 14.0112 9.04004 12.3779C9.04004 10.7447 10.3685 9.41602 12.0009 9.41602C13.6333 9.41602 14.9618 10.7447 14.9618 12.3779ZM14.6493 12.3788C14.6493 10.9177 13.4619 9.72979 12.0009 9.72979C10.5399 9.72979 9.35259 10.9177 9.35259 12.3788C9.35259 13.8399 10.5399 15.0277 12.0009 15.0277C13.4619 15.0277 14.6493 13.8398 14.6493 12.3788Z" fill="white" stroke="white"/>
<path d="M16.2146 8.54263C16.2146 8.78107 16.0199 8.97539 15.7821 8.97539C15.5438 8.97539 15.3496 8.78137 15.3496 8.54263C15.3496 8.30388 15.5438 8.10986 15.7821 8.10986C16.0204 8.10986 16.2146 8.30389 16.2146 8.54263Z" fill="white" stroke="white"/>
</svg>
