<svg width="24" height="25" viewBox="0 0 24 25" fill="none" xmlns="http://www.w3.org/2000/svg">
<path d="M12 0.625C18.4893 0.625 23.75 5.88717 23.75 12.3785C23.75 18.8699 18.4893 24.1321 12 24.1321C5.51073 24.1321 0.25 18.8699 0.25 12.3785C0.25 5.88717 5.51073 0.625 12 0.625Z" stroke="white" stroke-width="0.5"/>
<path d="M18.2212 7.84978L18.2209 7.84961C17.7923 7.54568 17.1979 7.51575 16.4591 7.51663L16.4585 7.51663C15.5572 7.51663 14.6561 7.51754 13.7547 7.51845C13.1534 7.51906 12.5519 7.51967 11.9502 7.52001L18.2212 7.84978ZM18.2212 7.84978C18.765 8.23494 18.9623 9.01546 19.0584 9.9424L18.2212 7.84978ZM7.81168 17.233C10.5471 17.2356 13.2833 17.2381 16.0195 17.2398L16.0204 17.2398C16.366 17.2406 16.71 17.2338 17.0396 17.198L17.0398 17.198C17.6984 17.1269 18.2132 16.9471 18.5413 16.5687L18.5415 16.5685C18.8824 16.1759 18.9943 15.5967 19.0641 14.8973L19.0641 14.8971C19.2294 13.2505 19.2277 11.5883 19.0584 9.94272L5.66544 16.772C6.17007 17.1876 6.91775 17.2322 7.81168 17.233ZM7.81168 17.233L7.81121 17.733L7.81168 17.233ZM9.78185 7.02212C9.0592 7.02275 8.33655 7.02338 7.6139 7.02422L4.87911 14.4658C4.79684 13.1555 4.78938 11.8413 4.85834 10.5307L4.85836 10.5304C4.89639 9.79841 4.96139 9.14179 5.22858 8.58058C5.41657 8.18716 5.71873 7.85793 6.0737 7.69252L6.07382 7.69246C6.45098 7.51659 6.83466 7.51931 7.36349 7.52307C7.44348 7.52363 7.52679 7.52422 7.6139 7.52422L7.61449 7.52422C8.33705 7.52338 9.05962 7.52275 9.78229 7.52212L9.78244 7.52211C10.5049 7.52148 11.2275 7.52085 11.9501 7.52001L11.9498 7.02001C11.2271 7.02085 10.5045 7.02148 9.78185 7.02212ZM9.86789 14.7336V15.5999L10.618 15.1666L14.6959 12.8107L15.4454 12.3777L14.6958 11.9448L10.6179 9.5898L9.86789 9.15665V10.0228V14.7336ZM5.66523 16.7719C5.10185 16.307 4.94187 15.4545 4.87912 14.4659L5.66523 16.7719Z" fill="white" stroke="white"/>
</svg>
