<svg width="24" height="25" viewBox="0 0 24 25" fill="none" xmlns="http://www.w3.org/2000/svg">
<path d="M11.9727 0.347168H12.0273C18.5015 0.347168 23.75 5.5971 23.75 12.0734V12.128C23.75 18.6043 18.5015 23.8542 12.0273 23.8542H11.9727C5.4985 23.8542 0.25 18.6043 0.25 12.128V12.0734C0.25 5.5971 5.4985 0.347168 11.9727 0.347168Z" stroke="white" stroke-width="0.5"/>
<path d="M8.27208 6.8602L8.27256 6.86065C8.45165 7.02693 8.53926 7.22506 8.53926 7.4907C8.53926 7.74946 8.45585 7.93486 8.27235 8.10579C8.09186 8.27328 7.85739 8.36908 7.5272 8.36908C7.19181 8.36908 6.94397 8.27018 6.76669 8.10559C6.58463 7.93655 6.5 7.74235 6.5 7.4907C6.5 7.23423 6.5889 7.02688 6.7672 6.86018C6.94546 6.69491 7.18393 6.59717 7.5272 6.59717C7.8661 6.59717 8.09168 6.69226 8.27208 6.8602ZM8.29988 10.4891V17.5972H6.73862V10.4891H8.29988Z" fill="white" stroke="white"/>
<path d="M15.0896 10.3809C15.8849 10.3809 16.4807 10.627 16.9267 11.0916L16.9611 11.1289C17.4122 11.6187 17.6659 12.3169 17.6659 13.2878V17.4541H16.2335V13.6167C16.2335 12.997 16.0713 12.4446 15.6834 12.03C15.2978 11.6179 14.7846 11.4276 14.2025 11.4276C13.6211 11.4276 13.1075 11.6166 12.7213 12.0302C12.3336 12.4447 12.1715 12.9971 12.1715 13.6167V17.4541H10.7246V10.4665H12.1715V11.0258V12.6092L13.0808 11.313C13.2758 11.035 13.542 10.8092 13.8927 10.6376C14.2358 10.4698 14.631 10.3809 15.0896 10.3809Z" fill="white" stroke="white"/>
</svg>
