<svg width="24" height="25" viewBox="0 0 24 25" fill="none" xmlns="http://www.w3.org/2000/svg">
<path d="M24 12.3785C24 5.74917 18.6274 0.375 12 0.375C5.37259 0.375 0 5.74917 0 12.3785C0 19.0079 5.37259 24.3821 12 24.3821C18.6274 24.3821 24 19.0079 24 12.3785Z" fill="white"/>
<path d="M19.7268 10.152C19.6355 9.27119 19.4392 8.29744 18.7167 7.78571C18.157 7.38888 17.4214 7.37421 16.7347 7.37503C15.2831 7.37584 13.8306 7.37748 12.379 7.37829C10.9828 7.37992 9.58653 7.38074 8.19029 7.38237C7.60703 7.38318 7.04006 7.33756 6.49834 7.59016C6.0332 7.80691 5.66907 8.21921 5.44994 8.67797C5.14609 9.316 5.08256 10.0388 5.0459 10.7444C4.97829 12.0295 4.98562 13.3177 5.06626 14.6019C5.12573 15.539 5.27643 16.5747 6.00062 17.172C6.64253 17.7008 7.54837 17.7269 8.3809 17.7277C11.0235 17.7301 13.6669 17.7326 16.3103 17.7342C16.6492 17.735 17.0027 17.7285 17.3481 17.691C18.0275 17.6177 18.6751 17.4229 19.1117 16.9194C19.5525 16.4117 19.6657 15.7052 19.7325 15.0362C19.8954 13.4131 19.8938 11.7744 19.7268 10.152ZM10.8508 14.8301V10.2792L14.7903 12.5542L10.8508 14.8301Z" fill="#6B3BAB"/>
</svg>
