<svg width="24" height="25" viewBox="0 0 24 25" fill="none" xmlns="http://www.w3.org/2000/svg">
<path d="M12 0.625488C18.422 0.625488 23.6411 5.77959 23.7483 12.1781V12.379C23.7483 18.3149 19.3496 23.2225 13.6355 24.0189C13.1011 24.093 12.5542 24.1317 11.9992 24.1317C11.3583 24.1317 10.7292 24.0806 10.1169 23.9818L10.1168 23.9818C4.52283 23.0809 0.25 18.2284 0.25 12.379C0.25 5.88783 5.5109 0.625488 12 0.625488Z" stroke="white" stroke-width="0.5"/>
<path d="M14.8024 8.38126C13.9771 8.38126 13.2946 8.99477 13.1858 9.79027L13.1698 9.80614V10.0142V12.629V13.129H13.6698H16.3256L15.959 15.6513H13.6698H13.1698V16.1513V23.8231C12.7849 23.8619 12.3942 23.8819 11.9992 23.8819C11.5174 23.8819 11.0427 23.8524 10.5771 23.795V16.1513V15.6513H10.0771H7.59473V13.129H10.0771H10.5771V12.629V9.42963C10.5771 7.75515 11.9066 6.39101 13.5676 6.33664H13.6707C13.6867 6.33664 13.701 6.33591 13.713 6.33496H16.4044V8.38126H14.8024Z" fill="white" stroke="white"/>
</svg>
