<svg width="13" height="13" viewBox="0 0 13 13" fill="none" xmlns="http://www.w3.org/2000/svg">
<path d="M3.1357 0.907715H9.39399C10.8467 0.907715 12.0295 2.09069 12.0295 3.54416V9.27127C12.0295 10.7247 10.8467 11.9077 9.39399 11.9077H3.1357C1.68302 11.9077 0.500183 10.7247 0.500183 9.27127V3.54416C0.500183 2.09069 1.68302 0.907715 3.1357 0.907715ZM3.1357 1.01415C1.74055 1.01415 0.606297 2.14896 0.606297 3.54416V9.27127C0.606297 10.6665 1.74056 11.8013 3.1357 11.8013H9.39399C10.7891 11.8013 11.9234 10.6665 11.9234 9.27127V3.54416C11.9234 2.14896 10.7891 1.01415 9.39399 1.01415H3.1357Z" fill="#6B3BAB" stroke="#6B3BAB"/>
<path d="M8.68117 6.40668C8.68117 7.73958 7.5962 8.82411 6.26461 8.82411C4.93238 8.82411 3.84804 7.73966 3.84804 6.40668C3.84804 5.07371 4.93238 3.98926 6.26461 3.98926C7.59683 3.98926 8.68117 5.07371 8.68117 6.40668ZM8.57506 6.40739C8.57506 5.13269 7.53929 4.0964 6.26461 4.0964C4.98992 4.0964 3.95415 5.13269 3.95415 6.40739C3.95415 7.6821 4.98992 8.71838 6.26461 8.71838C7.53929 8.71838 8.57506 7.68209 8.57506 6.40739Z" fill="#6B3BAB" stroke="#6B3BAB"/>
<path d="M9.73773 3.17473C9.73773 3.33222 9.60887 3.4608 9.4519 3.4608C9.29453 3.4608 9.16608 3.33252 9.16608 3.17473C9.16608 3.01695 9.29453 2.88867 9.4519 2.88867C9.60928 2.88867 9.73773 3.01695 9.73773 3.17473Z" fill="#6B3BAB" stroke="#6B3BAB"/>
</svg>
