<svg width="24" height="25" viewBox="0 0 24 25" fill="none" xmlns="http://www.w3.org/2000/svg">
<path d="M11.9727 0.657715H12.0273C18.5015 0.657715 23.75 5.90765 23.75 12.3839V12.4386C23.75 18.9149 18.5015 24.1648 12.0273 24.1648H11.9727C5.49849 24.1648 0.25 18.9149 0.25 12.4386V12.3839C0.25 5.90765 5.49849 0.657715 11.9727 0.657715Z" stroke="#6B3BAB" stroke-width="0.5"/>
<path d="M8.28729 5.79199H15.7136C17.4889 5.79199 18.9343 7.23755 18.9343 9.01379V15.8097C18.9343 17.586 17.4889 19.0315 15.7136 19.0315H8.28729C6.51193 19.0315 5.06659 17.586 5.06659 15.8097V9.01379C5.06659 7.23755 6.51193 5.79199 8.28729 5.79199ZM8.28729 6.10492C6.68333 6.10492 5.37914 7.40972 5.37914 9.01379V15.8097C5.37914 17.4138 6.68333 18.7186 8.28729 18.7186H15.7136C17.3175 18.7186 18.6217 17.4138 18.6217 15.8097V9.01379C18.6217 7.40971 17.3175 6.10492 15.7136 6.10492H8.28729Z" fill="#6B3BAB" stroke="#6B3BAB"/>
<path d="M14.962 12.4106C14.962 14.0438 13.6328 15.3725 12.0011 15.3725C10.3687 15.3725 9.04022 14.0439 9.04022 12.4106C9.04022 10.7774 10.3687 9.44873 12.0011 9.44873C13.6335 9.44873 14.962 10.7774 14.962 12.4106ZM14.6494 12.4115C14.6494 10.9504 13.4621 9.7625 12.0011 9.7625C10.5401 9.7625 9.35277 10.9504 9.35277 12.4115C9.35277 13.8726 10.5401 15.0604 12.0011 15.0604C13.4621 15.0604 14.6494 13.8726 14.6494 12.4115Z" fill="#6B3BAB" stroke="#6B3BAB"/>
<path d="M16.2148 8.57534C16.2148 8.81379 16.02 9.00811 15.7823 9.00811C15.544 9.00811 15.3498 8.81409 15.3498 8.57534C15.3498 8.3366 15.544 8.14258 15.7823 8.14258C16.0206 8.14258 16.2148 8.3366 16.2148 8.57534Z" fill="#6B3BAB" stroke="#6B3BAB"/>
</svg>
