<svg width="13" height="13" viewBox="0 0 13 13" fill="none" xmlns="http://www.w3.org/2000/svg">
<path d="M2.27205 1.19126L2.27253 1.19171C2.45162 1.35798 2.53923 1.55611 2.53923 1.82176C2.53923 2.08052 2.45582 2.26591 2.27232 2.43685C2.09182 2.60433 1.85735 2.70013 1.52717 2.70013C1.19178 2.70013 0.943937 2.60124 0.766663 2.43665C0.5846 2.26761 0.499969 2.07341 0.499969 1.82176C0.499969 1.56528 0.588865 1.35794 0.76717 1.19124C0.945426 1.02597 1.1839 0.928223 1.52717 0.928223C1.86607 0.928223 2.09165 1.02331 2.27205 1.19126ZM2.29985 4.82011V11.9282H0.738588V4.82011H2.29985Z" fill="#6B3BAB" stroke="#6B3BAB"/>
<path d="M9.08869 4.71191C9.88406 4.71191 10.4799 4.95806 10.9259 5.42268L10.9602 5.45996C11.4113 5.9498 11.6651 6.64791 11.6651 7.61884V11.7852H10.2326V7.94771C10.2326 7.32808 10.0704 6.77563 9.68258 6.36109C9.29694 5.94891 8.78371 5.75864 8.2016 5.75864C7.62027 5.75864 7.10659 5.94768 6.72047 6.36124C6.33272 6.77577 6.17059 7.32815 6.17059 7.94771V11.7852H4.72374V4.79754H6.17059V5.3569V6.94028L7.07992 5.64404C7.27492 5.36608 7.54112 5.1403 7.89184 4.96869C8.23489 4.80083 8.63018 4.71191 9.08869 4.71191Z" fill="#6B3BAB" stroke="#6B3BAB"/>
</svg>
