<svg width="24" height="25" viewBox="0 0 24 25" fill="none" xmlns="http://www.w3.org/2000/svg">
<path d="M11.9727 0.678223H12.0273C18.5015 0.678223 23.75 5.92815 23.75 12.4044V12.4591C23.75 18.9354 18.5015 24.1853 12.0273 24.1853H11.9727C5.4985 24.1853 0.25 18.9354 0.25 12.4591V12.4044C0.25 5.92815 5.4985 0.678223 11.9727 0.678223Z" stroke="#6B3BAB" stroke-width="0.5"/>
<path d="M7.80932 6.57818L7.80981 6.57863C8.02021 6.77398 8.12339 7.00869 8.12339 7.31824C8.12339 7.6209 8.02433 7.84121 7.8096 8.04122C7.59779 8.23778 7.32359 8.34817 6.94509 8.34817C6.56139 8.34817 6.27215 8.23469 6.06356 8.04102C5.85018 7.84291 5.74997 7.61271 5.74997 7.31824C5.74997 7.01894 5.85452 6.77402 6.06406 6.57816C6.27363 6.38381 6.55241 6.27148 6.94509 6.27148C7.33338 6.27148 7.59769 6.38116 7.80932 6.57818ZM7.8577 10.5913V18.5909H6.01482V10.5913H7.8577Z" fill="#6B3BAB" stroke="#6B3BAB"/>
<path d="M15.3363 10.4712C16.2322 10.4712 16.9087 10.7492 17.4156 11.2774L17.4541 11.3192C17.9666 11.8757 18.251 12.6653 18.251 13.7527V18.4321H16.5511V14.1177C16.5511 13.4394 16.3736 12.8413 15.9554 12.3942C15.5393 11.9496 14.9851 11.743 14.3517 11.743C13.7191 11.743 13.1644 11.9482 12.7479 12.3944C12.3297 12.8414 12.1524 13.4394 12.1524 14.1177V18.4321H10.4365V10.5662H12.1524V11.2421V12.8255L13.0617 11.5292C13.2839 11.2124 13.5869 10.956 13.9837 10.7618C14.3729 10.5714 14.8201 10.4712 15.3363 10.4712Z" fill="#6B3BAB" stroke="#6B3BAB"/>
</svg>
