<svg width="1613" height="1615" viewBox="0 0 1613 1615" fill="none" xmlns="http://www.w3.org/2000/svg">
<path d="M738 2.46728C599.2 15.2673 472.133 59.6673 359.333 134.734C259.6 201.134 174.8 289.934 113.467 392.067C101.867 411.534 82.6667 446.734 82.6667 448.734C82.6667 449.534 191.2 449.667 368.667 449.267L654.667 448.601V552.867V657.001H389.467H124.267L126.133 648.601C129.867 632.334 136 610.734 141.733 592.601L147.733 574.334L90.2667 574.601L32.8 575.001L30.2667 583.001C26.2667 595.934 17.7333 631.001 14 649.401C7.6 681.534 0 741.001 0 759.934V766.334H382.667H765.333L765.067 553.267L764.667 340.334L527.067 339.934C396.267 339.801 289.333 339.134 289.333 338.601C289.333 336.334 341.067 286.467 357.333 273.001C404.4 233.934 444.533 207.934 499.333 181.001C534 163.934 557.067 154.467 589.333 143.934C608.8 137.534 649.333 126.334 652.933 126.334C654.267 126.334 654.667 136.467 654.933 170.601L655.333 215.001H710H764.667L765.067 107.934L765.333 1.00061L757.733 1.13394C753.467 1.26728 744.667 1.80061 738 2.46728Z" fill="black"/>
<path d="M846.667 383.534V766.334H1229.47H1612.4L1611.47 752.601C1606.67 680.734 1590.13 601.667 1565.2 532.734C1543.6 473.001 1509.73 406.467 1475.07 355.667L1464.53 340.334L1414.27 339.934L1364 339.667L1363.73 281.401L1363.33 223.134L1347.33 208.601C1214.13 87.5339 1039.6 13.2673 861.067 1.66728L846.667 0.733944V383.534ZM981.2 131.667C1077.07 156.734 1165.2 201.401 1245.07 265.401L1260 277.401V308.601V339.667H1108H956V233.001C956 132.334 956.133 126.334 958.4 126.334C959.6 126.334 969.867 128.734 981.2 131.667ZM1413.73 464.601C1434.67 501.801 1456.67 551.667 1469.87 592.467C1476.27 612.201 1486.67 650.734 1486.67 654.601C1486.67 656.867 1473.2 657.001 1221.33 657.001H956V553.001V449.001H1180.4H1404.8L1413.73 464.601Z" fill="black"/>
<path d="M0 856.601C0 871.667 5.86667 921.267 11.4667 953.267L12.4 958.334H333.467H654.667V1036.07V1113.67L630.267 1138.07L606 1162.33H405.2H204.533L199.067 1152.6C189.6 1135.93 177.867 1112.87 171.2 1097.93L164.8 1083.67H105.733H46.8L50.1333 1092.6C63.7333 1129 85.3333 1174.73 105.333 1209.67C172.8 1327.27 271.2 1427.93 388 1499.27C407.067 1510.87 435.2 1526.33 437.2 1526.33C438.267 1526.33 438.667 1509.4 438.667 1463.93V1401.67L422.667 1391.13C379.333 1362.87 335.333 1326.07 298.533 1287L284.667 1272.33L446.667 1271.93L608.667 1271.67L631.6 1294.6L654.667 1317.67L654.933 1459.53L655.333 1601.53L660 1602.6C679.333 1606.73 743.2 1614.33 758.933 1614.33H765.333V1448.6V1282.87L759.2 1277C755.867 1273.67 741.067 1258.47 726.267 1243.27L699.6 1215.53L732.4 1182.6L765.333 1149.53V999.267V849.001H382.667H0V856.601Z" fill="black"/>
<path d="M846.667 1231.67V1614.33H853.067C862.667 1614.33 900.8 1610.6 921.333 1607.53C1078.67 1584.73 1225.33 1516.2 1344 1410.2L1357.87 1397.67L1269.07 1397.27L1180.4 1397L1166.27 1405.53C1125.07 1430.87 1073.33 1454.87 1026.8 1470.47C1007.73 1476.73 970.4 1487.13 962.133 1488.33L956 1489.27V1380.47V1271.67H1211.73H1467.33L1481.47 1249.93C1497.6 1225.4 1512.8 1199.4 1523.33 1178.2C1527.33 1170.2 1530.67 1163.4 1530.67 1163C1530.67 1162.6 1401.33 1162.33 1243.33 1162.33H956V1060.33V958.334H1221.87H1487.73L1482 981.001C1478.8 993.534 1473.73 1011.27 1470.8 1020.33C1467.73 1029.53 1465.33 1037.4 1465.33 1037.67C1465.33 1038.07 1491.07 1038.33 1522.53 1038.33H1579.73L1581.2 1033.93C1588.67 1011 1600.67 955.134 1605.2 922.067C1608.13 901.401 1612 862.601 1612 853.934V849.001H1229.33H846.667V1231.67Z" fill="black"/>
</svg>
