<svg width="2862" height="779" viewBox="0 0 2862 779" fill="none" xmlns="http://www.w3.org/2000/svg">
<g clip-path="url(#clip0_58_1971)">
<path d="M252.667 1.801C184.933 9.26767 130.267 33.401 90.0001 73.6677C73.7334 90.0677 63.3334 103.934 53.3334 123.268C34.2667 159.668 26.8001 202.868 31.4667 248.468C38.4001 317.268 69.4667 362.868 132.667 397.401C166.533 415.801 209.733 430.334 289.067 450.334C371.733 471.001 406.8 485.401 429.6 507.801C446.267 524.201 452.4 542.334 450.933 570.334C449.067 605.001 428.933 631.534 392.667 647.134C370.267 656.734 350.267 660.334 316.933 660.334C290.4 660.334 274.8 658.868 251.467 654.201C198.533 643.668 137.067 611.801 89.0667 570.068C84.6667 566.201 80.6667 563.001 80.2667 563.001C79.4667 563.001 1.46672 655.934 0.933391 657.534C0.400058 659.268 24.1334 679.001 42.9334 692.468C105.6 737.401 174.533 764.468 255.467 775.934C276.4 778.868 346.667 779.268 365.333 776.601C434.667 766.601 485.6 743.668 524.133 705.134C547.333 681.801 561.6 659.401 571.733 630.068C589.6 578.734 588.667 515.268 569.333 469.268C548.933 421.268 506 385.268 436 357.801C408.667 347.001 383.067 339.268 336.933 327.534C292.267 316.334 276.8 311.934 254.8 304.334C187.6 281.134 163.467 256.601 163.333 211.534C163.333 196.334 165.467 186.601 171.333 174.334C180.267 155.934 193.867 143.268 216.8 132.334C256.533 113.401 318.4 114.334 378.667 135.001C408.667 145.268 460.8 173.534 485.067 192.734C487.867 194.868 490.667 196.201 491.2 195.534C492 194.601 548.4 114.734 559.467 98.8677L562 95.2677L547.6 84.601C486.267 39.001 423.867 13.801 347.2 3.53433C328.8 1.13433 268.667 -0.0656656 252.667 1.801Z" fill="black"/>
<path d="M740.667 389.667V768.334H928.4C1045.87 768.334 1122 767.801 1132 766.867C1195.6 761.401 1246.53 745.667 1286.13 719.267C1328.53 690.867 1354.8 651.401 1364.93 601.401C1368.93 581.801 1369.2 540.067 1365.6 520.734C1353.33 454.734 1311.6 410.067 1234.4 380.334L1219.47 374.467L1227.73 369.934C1253.33 355.801 1283.87 328.867 1296.93 309.001C1317.07 278.334 1326.27 246.201 1326.27 205.667C1326.27 165.534 1318 135.667 1298.93 106.734C1265.87 56.4673 1211.07 25.9339 1132.67 14.2006C1118.8 12.0673 1099.47 11.8006 929.067 11.4006L740.667 10.8673V389.667ZM1094.4 131.667C1146.53 138.601 1180.4 163.267 1190.8 201.667C1193.87 213.401 1194 240.334 1190.93 252.334C1187.87 263.934 1179.33 280.867 1172.67 288.734C1157.07 306.601 1130.93 319.801 1097.6 326.601C1088.13 328.467 1072.53 328.867 979.067 329.267L871.333 329.801V229.667V129.667H975.733C1058.53 129.667 1082.93 130.067 1094.4 131.667ZM1129.87 446.201C1187.47 456.201 1219.87 478.334 1231.73 515.667C1234.27 523.801 1234.67 527.934 1234.53 546.334C1234.53 565.801 1234.27 568.601 1230.93 578.467C1219.33 613.401 1190.27 635.267 1141.2 645.934C1128.27 648.734 1125.33 648.867 999.733 649.267L871.333 649.801V546.334V442.867L994.4 443.401C1100.53 443.934 1119.07 444.201 1129.87 446.201Z" fill="black"/>
<path d="M1518 389.667V768.334H1584.67H1651.33V636.334V504.334H1733.73H1816L1908.67 636.334L2001.33 768.334H2080.53H2159.6L2156.4 763.934C2146 750.067 1956.53 482.734 1956.93 482.334C1957.2 482.067 1965.2 479.134 1974.67 475.667C1993.07 469.001 2017.47 457.401 2030.67 449.001C2080.13 417.534 2112.93 372.867 2126.4 318.334C2132.67 293.267 2133.33 286.734 2133.33 250.334C2133.2 217.934 2132.93 214.601 2129.6 198.867C2119.87 153.267 2100.53 116.067 2071.33 87.0006C2053.33 69.0006 2036.93 57.4006 2012 45.0006C1974.4 26.3339 1937.47 16.4673 1889.33 12.3339C1879.47 11.5339 1805.47 11.0006 1695.73 11.0006H1518V389.667ZM1884.4 135.534C1924.53 142.201 1956.8 158.601 1974.67 181.401C1982.13 190.867 1990.27 206.201 1993.73 217.667C1999.87 237.667 2000.8 268.201 1996 289.667C1994.8 295.134 1990.53 306.334 1986.67 314.467C1980.67 326.867 1977.6 331.267 1968.53 340.867C1946.67 364.067 1917.73 378.067 1880.27 383.534C1868.53 385.401 1849.07 385.667 1758.8 385.667H1651.33V258.867V132.201L1761.07 132.734C1857.2 133.134 1872.4 133.534 1884.4 135.534Z" fill="black"/>
<path d="M2296.67 389.667V768.334H2579.33H2862V709.001V649.667H2646H2430V548.334V447.001H2618.67H2807.33V387.001V327.001H2618.67H2430V229.001V131.001L2643.07 130.734L2856 130.334L2856.4 70.6006L2856.67 11.0006H2576.67H2296.67V389.667Z" fill="black"/>
</g>
<defs>
<clipPath id="clip0_58_1971">
<rect width="2862" height="779" fill="white"/>
</clipPath>
</defs>
</svg>
