<svg width="25" height="24" viewBox="0 0 25 24" fill="none" xmlns="http://www.w3.org/2000/svg">
<path d="M19.21 8.70913C19.117 8.6154 19.0064 8.54101 18.8846 8.49024C18.7627 8.43947 18.632 8.41333 18.5 8.41333C18.368 8.41333 18.2373 8.43947 18.1154 8.49024C17.9936 8.54101 17.883 8.6154 17.79 8.70913L13.21 13.2891C13.117 13.3828 13.0064 13.4572 12.8846 13.508C12.7627 13.5588 12.632 13.5849 12.5 13.5849C12.368 13.5849 12.2373 13.5588 12.1154 13.508C11.9936 13.4572 11.883 13.3828 11.79 13.2891L7.21 8.70913C7.11704 8.6154 7.00644 8.54101 6.88458 8.49024C6.76272 8.43947 6.63201 8.41333 6.5 8.41333C6.36799 8.41333 6.23728 8.43947 6.11542 8.49024C5.99356 8.54101 5.88296 8.6154 5.79 8.70913C5.60375 8.89649 5.49921 9.14994 5.49921 9.41413C5.49921 9.67831 5.60375 9.93176 5.79 10.1191L10.38 14.7091C10.9425 15.2709 11.705 15.5865 12.5 15.5865C13.295 15.5865 14.0575 15.2709 14.62 14.7091L19.21 10.1191C19.3963 9.93176 19.5008 9.67831 19.5008 9.41413C19.5008 9.14994 19.3963 8.89649 19.21 8.70913Z" fill="#0D0D0D"/>
</svg>
