<svg width="54" height="54" viewBox="0 0 54 54" fill="none" xmlns="http://www.w3.org/2000/svg">
<rect x="0.5" y="0.5" width="53" height="53" rx="26.5" stroke="#0D0D0D"/>
<path d="M26 20H28M24.2 37H29.8C30.9201 37 31.4802 37 31.908 36.782C32.2843 36.5903 32.5903 36.2843 32.782 35.908C33 35.4802 33 34.9201 33 33.8V20.2C33 19.0799 33 18.5198 32.782 18.092C32.5903 17.7157 32.2843 17.4097 31.908 17.218C31.4802 17 30.9201 17 29.8 17H24.2C23.0799 17 22.5198 17 22.092 17.218C21.7157 17.4097 21.4097 17.7157 21.218 18.092C21 18.5198 21 19.0799 21 20.2V33.8C21 34.9201 21 35.4802 21.218 35.908C21.4097 36.2843 21.7157 36.5903 22.092 36.782C22.5198 37 23.0799 37 24.2 37Z" stroke="#0D0D0D" stroke-width="1.5" stroke-linecap="round"/>
</svg>
