<svg width="70" height="70" viewBox="0 0 70 70" fill="none" xmlns="http://www.w3.org/2000/svg">
<rect x="1" y="1" width="68" height="68" rx="34" stroke="#0D0D0D" stroke-width="2"/>
<path d="M34 28H36M32.2 45H37.8C38.9201 45 39.4802 45 39.908 44.782C40.2843 44.5903 40.5903 44.2843 40.782 43.908C41 43.4802 41 42.9201 41 41.8V28.2C41 27.0799 41 26.5198 40.782 26.092C40.5903 25.7157 40.2843 25.4097 39.908 25.218C39.4802 25 38.9201 25 37.8 25H32.2C31.0799 25 30.5198 25 30.092 25.218C29.7157 25.4097 29.4097 25.7157 29.218 26.092C29 26.5198 29 27.0799 29 28.2V41.8C29 42.9201 29 43.4802 29.218 43.908C29.4097 44.2843 29.7157 44.5903 30.092 44.782C30.5198 45 31.0799 45 32.2 45Z" stroke="#0D0D0D" stroke-width="1.5" stroke-linecap="round"/>
</svg>
