<svg width="54" height="54" viewBox="0 0 54 54" fill="none" xmlns="http://www.w3.org/2000/svg">
<rect x="0.5" y="0.5" width="53" height="53" rx="26.5" stroke="#0D0D0D"/>
<path d="M31.6 29.0001C31.4 28.9001 30.1 28.3001 29.9 28.2001C29.7 28.1001 29.5 28.1001 29.3 28.3001C29.1 28.5001 28.7 29.1001 28.5 29.3001C28.4 29.5001 28.2 29.5001 28 29.4001C27.3 29.1001 26.6 28.7001 26 28.2001C25.5 27.7001 25 27.1001 24.6 26.5001C24.5 26.3001 24.6 26.1001 24.7 26.0001C24.8 25.9001 24.9 25.7001 25.1 25.6001C25.2 25.5001 25.3 25.3001 25.3 25.2001C25.4 25.1001 25.4 24.9001 25.3 24.8001C25.2 24.7001 24.7 23.5001 24.5 23.0001C24.4 22.3001 24.2 22.3001 24 22.3001H23.5C23.3 22.3001 23 22.5001 22.9 22.6001C22.3 23.2001 22 23.9001 22 24.7001C22.1 25.6001 22.4 26.5001 23 27.3001C24.1 28.9001 25.5 30.2001 27.2 31.0001C27.7 31.2001 28.1 31.4001 28.6 31.5001C29.1 31.7001 29.6 31.7001 30.2 31.6001C30.9 31.5001 31.5 31.0001 31.9 30.4001C32.1 30.0001 32.1 29.6001 32 29.2001L31.6 29.0001ZM34.1 19.9001C30.2 16.0001 23.9 16.0001 20 19.9001C16.8 23.1001 16.2 28.0001 18.4 31.9001L17 37.0001L22.3 35.6001C23.8 36.4001 25.4 36.8001 27 36.8001C32.5 36.8001 36.9 32.4001 36.9 26.9001C37 24.3001 35.9 21.8001 34.1 19.9001ZM31.4 33.9001C30.1 34.7001 28.6 35.2001 27 35.2001C25.5 35.2001 24.1 34.8001 22.8 34.1001L22.5 33.9001L19.4 34.7001L20.2 31.7001L20 31.4001C17.6 27.4001 18.8 22.4001 22.7 19.9001C26.6 17.4001 31.6 18.7001 34 22.5001C36.4 26.4001 35.3 31.5001 31.4 33.9001Z" fill="#0D0D0D"/>
</svg>
