<svg width="70" height="70" viewBox="0 0 70 70" fill="none" xmlns="http://www.w3.org/2000/svg">
<rect x="1" y="1" width="68" height="68" rx="34" stroke="#0D0D0D" stroke-width="2"/>
<path d="M39.6 37.0001C39.4 36.9001 38.1 36.3001 37.9 36.2001C37.7 36.1001 37.5 36.1001 37.3 36.3001C37.1 36.5001 36.7 37.1001 36.5 37.3001C36.4 37.5001 36.2 37.5001 36 37.4001C35.3 37.1001 34.6 36.7001 34 36.2001C33.5 35.7001 33 35.1001 32.6 34.5001C32.5 34.3001 32.6 34.1001 32.7 34.0001C32.8 33.9001 32.9 33.7001 33.1 33.6001C33.2 33.5001 33.3 33.3001 33.3 33.2001C33.4 33.1001 33.4 32.9001 33.3 32.8001C33.2 32.7001 32.7 31.5001 32.5 31.0001C32.4 30.3001 32.2 30.3001 32 30.3001H31.5C31.3 30.3001 31 30.5001 30.9 30.6001C30.3 31.2001 30 31.9001 30 32.7001C30.1 33.6001 30.4 34.5001 31 35.3001C32.1 36.9001 33.5 38.2001 35.2 39.0001C35.7 39.2001 36.1 39.4001 36.6 39.5001C37.1 39.7001 37.6 39.7001 38.2 39.6001C38.9 39.5001 39.5 39.0001 39.9 38.4001C40.1 38.0001 40.1 37.6001 40 37.2001L39.6 37.0001ZM42.1 27.9001C38.2 24.0001 31.9 24.0001 28 27.9001C24.8 31.1001 24.2 36.0001 26.4 39.9001L25 45.0001L30.3 43.6001C31.8 44.4001 33.4 44.8001 35 44.8001C40.5 44.8001 44.9 40.4001 44.9 34.9001C45 32.3001 43.9 29.8001 42.1 27.9001ZM39.4 41.9001C38.1 42.7001 36.6 43.2001 35 43.2001C33.5 43.2001 32.1 42.8001 30.8 42.1001L30.5 41.9001L27.4 42.7001L28.2 39.7001L28 39.4001C25.6 35.4001 26.8 30.4001 30.7 27.9001C34.6 25.4001 39.6 26.7001 42 30.5001C44.4 34.4001 43.3 39.5001 39.4 41.9001Z" fill="#0D0D0D"/>
</svg>
