<svg width="24" height="25" viewBox="0 0 24 25" fill="none" xmlns="http://www.w3.org/2000/svg">
<path d="M12 0.670898C18.4893 0.670898 23.75 5.93307 23.75 12.4244C23.75 18.9158 18.4893 24.178 12 24.178C5.51073 24.178 0.25 18.9158 0.25 12.4244C0.25 5.93307 5.51073 0.670898 12 0.670898Z" stroke="#6B3BAB" stroke-width="0.5"/>
<path d="M19.7268 10.1979C19.6355 9.31709 19.4392 8.34334 18.7167 7.83161C18.157 7.43478 17.4214 7.42011 16.7347 7.42093C15.2831 7.42174 13.8306 7.42337 12.379 7.42419C10.9828 7.42582 9.58653 7.42664 8.19029 7.42827C7.60703 7.42908 7.04006 7.38345 6.49834 7.63606C6.0332 7.85281 5.66907 8.26511 5.44994 8.72387C5.14609 9.3619 5.08256 10.0847 5.0459 10.7903C4.97829 12.0754 4.98562 13.3636 5.06626 14.6478C5.12573 15.5849 5.27643 16.6206 6.00062 17.2179C6.64253 17.7467 7.54837 17.7728 8.3809 17.7736C11.0235 17.776 13.6669 17.7785 16.3103 17.7801C16.6492 17.7809 17.0027 17.7744 17.3481 17.7369C18.0275 17.6636 18.6751 17.4688 19.1117 16.9653C19.5525 16.4576 19.6657 15.7511 19.7325 15.0821C19.8954 13.459 19.8938 11.8203 19.7268 10.1979ZM10.8508 14.876V10.3251L14.7903 12.6001L10.8508 14.876Z" fill="#6B3BAB"/>
</svg>
