<svg width="15" height="11" viewBox="0 0 15 11" fill="none" xmlns="http://www.w3.org/2000/svg">
<path d="M14.216 3.10163C14.128 2.25132 13.9385 1.31135 13.241 0.817369C12.7007 0.4343 11.9906 0.420138 11.3277 0.420925C9.92646 0.421712 8.52438 0.423288 7.1231 0.424074C5.77528 0.425648 4.42746 0.426438 3.07964 0.428011C2.51661 0.428798 1.96931 0.384753 1.44638 0.628595C0.997369 0.837828 0.645868 1.23583 0.434337 1.67868C0.141026 2.29458 0.0796936 2.99229 0.0443075 3.67348C-0.0209601 4.91393 -0.0138829 6.15753 0.0639664 7.39719C0.12137 8.30177 0.266844 9.30151 0.965916 9.87808C1.58556 10.3886 2.45999 10.4138 3.26365 10.4145C5.81459 10.4169 8.36633 10.4193 10.9181 10.4208C11.2452 10.4216 11.5865 10.4153 11.9199 10.3791C12.5757 10.3084 13.2008 10.1204 13.6223 9.63425C14.0477 9.1442 14.1571 8.46222 14.2215 7.81643C14.3788 6.24955 14.3772 4.66772 14.216 3.10163ZM5.64789 7.61742V3.22434L9.45072 5.42049L5.64789 7.61742Z" fill="#6B3BAB"/>
</svg>
