<svg width="24" height="25" viewBox="0 0 24 25" fill="none" xmlns="http://www.w3.org/2000/svg">
<path d="M12 0.670898C18.4893 0.670898 23.75 5.93307 23.75 12.4244C23.75 18.9158 18.4893 24.178 12 24.178C5.51073 24.178 0.25 18.9158 0.25 12.4244C0.25 5.93307 5.51073 0.670898 12 0.670898Z" stroke="#6B3BAB" stroke-width="0.5"/>
<path d="M18.2212 7.89568L18.2209 7.89551C17.7923 7.59158 17.1979 7.56165 16.4591 7.56253L16.4585 7.56253C15.5572 7.56253 14.6561 7.56344 13.7547 7.56435C13.1534 7.56496 12.5519 7.56557 11.9502 7.56591L18.2212 7.89568ZM18.2212 7.89568C18.765 8.28084 18.9623 9.06136 19.0584 9.9883L18.2212 7.89568ZM7.81168 17.2789C10.5471 17.2815 13.2833 17.284 16.0195 17.2857L16.0204 17.2857C16.366 17.2865 16.71 17.2797 17.0396 17.2439L17.0398 17.2439C17.6984 17.1728 18.2132 16.993 18.5413 16.6146L18.5415 16.6144C18.8824 16.2218 18.9943 15.6426 19.0641 14.9432L19.0641 14.943C19.2294 13.2964 19.2277 11.6342 19.0584 9.98862L5.66544 16.8179C6.17007 17.2335 6.91775 17.278 7.81168 17.2789ZM7.81168 17.2789L7.81121 17.7789L7.81168 17.2789ZM9.78185 7.06801C9.0592 7.06865 8.33655 7.06928 7.6139 7.07012L4.87911 14.5117C4.79684 13.2014 4.78938 11.8872 4.85834 10.5766L4.85836 10.5763C4.89639 9.8443 4.96139 9.18769 5.22858 8.62648C5.41657 8.23306 5.71873 7.90383 6.0737 7.73842L6.07382 7.73836C6.45098 7.56249 6.83466 7.56521 7.36349 7.56896C7.44348 7.56953 7.52679 7.57012 7.6139 7.57012L7.61449 7.57012C8.33705 7.56928 9.05962 7.56865 9.78229 7.56801L9.78244 7.56801C10.5049 7.56738 11.2275 7.56675 11.9501 7.56591L11.9498 7.06591C11.2271 7.06675 10.5045 7.06738 9.78185 7.06801ZM9.86789 14.7795V15.6458L10.618 15.2125L14.6959 12.8566L15.4454 12.4236L14.6958 11.9907L10.6179 9.6357L9.86789 9.20254V10.0687V14.7795ZM5.66523 16.8178C5.10185 16.3529 4.94187 15.5004 4.87912 14.5117L5.66523 16.8178Z" fill="#6B3BAB" stroke="#6B3BAB"/>
</svg>
