<svg width="59" height="45" viewBox="0 0 59 45" fill="none" xmlns="http://www.w3.org/2000/svg">
<path d="M37.1949 45C35.8714 45 35.2096 44.2831 35.2096 42.8493V26.636C35.2096 25.9743 35.3751 25.3677 35.7059 24.8162L49.7684 2.31618C50.3199 1.43382 51.0368 0.827205 51.9192 0.496327C52.8015 0.165442 53.6287 0 54.4008 0H57.2133C57.875 0 58.3714 0.275735 58.7023 0.827205C59.0331 1.37868 59.0883 1.93015 58.8677 2.48162L51.5883 18.6949C51.1471 19.9081 50.9817 20.8456 51.092 21.5074C51.3126 22.0588 51.864 22.3897 52.7464 22.5L55.5589 22.6654C56.6618 22.7757 57.3787 23.0515 57.7096 23.4926C58.1508 23.8235 58.3714 24.4302 58.3714 25.3125V42.5184C58.3714 44.1728 57.6545 45 56.2206 45H37.1949ZM2.78315 45C1.45962 45 0.797852 44.2831 0.797852 42.8493V26.636C0.797852 25.9743 0.963293 25.3677 1.29417 24.8162L15.5221 2.31618C15.9633 1.43382 16.6251 0.827205 17.5074 0.496327C18.3898 0.165442 19.217 0 19.989 0H22.8015C23.4633 0 23.9596 0.275735 24.2905 0.827205C24.6214 1.37868 24.6765 1.93015 24.4559 2.48162L17.342 18.6949C16.7905 19.9081 16.5699 20.8456 16.6802 21.5074C16.9008 22.0588 17.4523 22.3897 18.3346 22.5L21.1471 22.6654C22.2501 22.7757 22.967 23.0515 23.2978 23.4926C23.739 23.8235 23.9596 24.4302 23.9596 25.3125V42.5184C23.9596 44.1728 23.2427 45 21.8089 45H2.78315Z" fill="#C3C4C4"/>
</svg>
