<svg width="20" height="20" viewBox="0 0 20 20" fill="none" xmlns="http://www.w3.org/2000/svg">
<path d="M9.62635 1.59042C9.77919 1.28073 10.2208 1.28073 10.3736 1.59042L12.5971 6.09558C12.6578 6.21855 12.7751 6.30379 12.9108 6.32351L17.8825 7.04595C18.2243 7.09561 18.3607 7.5156 18.1134 7.75665L14.5159 11.2634C14.4177 11.3592 14.3728 11.4971 14.396 11.6322L15.2453 16.5839C15.3037 16.9243 14.9464 17.1838 14.6407 17.0231L10.1939 14.6853C10.0725 14.6215 9.92749 14.6215 9.8061 14.6853L5.35924 17.0231C5.05356 17.1838 4.6963 16.9243 4.75468 16.5839L5.60395 11.6322C5.62714 11.4971 5.58232 11.3592 5.48412 11.2634L1.88654 7.75665C1.63924 7.5156 1.7757 7.09561 2.11746 7.04595L7.0892 6.32351C7.22491 6.30379 7.34223 6.21855 7.40292 6.09558L9.62635 1.59042Z" fill="#0D0D0D" stroke="#0D0D0D" stroke-width="1.5"/>
</svg>
